<svg width="200" height="50" viewBox="0 0 200 50" fill="none" xmlns="http://www.w3.org/2000/svg">
<rect x="1" y="1" width="198" height="48" fill="black" stroke="white" stroke-width="2"/>
<path d="M31.451 16.624C32.843 16.624 34.075 16.856 35.147 17.32C36.235 17.768 37.147 18.392 37.883 19.192C38.635 19.992 39.203 20.92 39.587 21.976C39.987 23.032 40.187 24.168 40.187 25.384C40.187 27.16 39.843 28.72 39.155 30.064C38.467 31.408 37.475 32.456 36.179 33.208C34.883 33.96 33.315 34.336 31.475 34.336C29.619 34.336 28.035 33.944 26.723 33.16C25.427 32.36 24.435 31.28 23.747 29.92C23.075 28.56 22.739 27.032 22.739 25.336C22.739 23.56 23.099 22.024 23.819 20.728C24.539 19.416 25.547 18.408 26.843 17.704C28.155 16.984 29.691 16.624 31.451 16.624ZM31.739 32.656C32.523 32.656 33.211 32.456 33.803 32.056C34.395 31.64 34.891 31.096 35.291 30.424C35.691 29.752 35.995 29.016 36.203 28.216C36.411 27.4 36.515 26.592 36.515 25.792C36.515 24.928 36.427 24.056 36.251 23.176C36.075 22.296 35.779 21.488 35.363 20.752C34.963 20.016 34.419 19.424 33.731 18.976C33.043 18.528 32.195 18.304 31.187 18.304C30.435 18.304 29.763 18.496 29.171 18.88C28.579 19.264 28.075 19.776 27.659 20.416C27.243 21.056 26.923 21.768 26.699 22.552C26.491 23.336 26.387 24.128 26.387 24.928C26.387 25.792 26.475 26.68 26.651 27.592C26.827 28.504 27.123 29.344 27.539 30.112C27.955 30.864 28.507 31.48 29.195 31.96C29.883 32.424 30.731 32.656 31.739 32.656ZM41.5565 22.984L41.4365 21.76L46.8605 20.992V22.984C47.4045 22.328 48.0685 21.848 48.8525 21.544C49.6365 21.224 50.3565 21.064 51.0125 21.064C51.7805 21.064 52.5325 21.208 53.2685 21.496C54.0045 21.768 54.6125 22.224 55.0925 22.864C55.5885 23.504 55.8445 24.376 55.8605 25.48V32.392L57.6605 32.728L57.4205 34H50.6285V33.16L52.5005 32.44V26.44C52.5005 25.416 52.3405 24.672 52.0205 24.208C51.7005 23.744 51.0925 23.512 50.1965 23.512C49.5565 23.512 48.9165 23.632 48.2765 23.872C47.6525 24.112 47.1805 24.416 46.8605 24.784V32.392L48.6605 32.728L48.4205 34H41.3885V33.16L43.5005 32.44V23.344L41.5565 22.984ZM58.4143 17.728L58.2943 16.504L63.7183 15.76V32.392L65.7583 32.728L65.5183 34H58.2463V33.16L60.3583 32.44V18.088L58.4143 17.728ZM68.0885 17.848C68.2325 17.608 68.4325 17.36 68.6885 17.104C68.9605 16.848 69.2485 16.608 69.5525 16.384C69.8565 16.144 70.1285 15.96 70.3685 15.832C70.6085 15.944 70.8725 16.112 71.1605 16.336C71.4645 16.56 71.7445 16.8 72.0005 17.056C72.2725 17.312 72.4645 17.56 72.5765 17.8C72.4485 18.024 72.2485 18.272 71.9765 18.544C71.7045 18.8 71.4165 19.04 71.1125 19.264C70.8085 19.488 70.5365 19.672 70.2965 19.816C70.0725 19.688 69.8085 19.512 69.5045 19.288C69.2165 19.064 68.9365 18.824 68.6645 18.568C68.4085 18.312 68.2165 18.072 68.0885 17.848ZM67.2965 22.984L67.1765 21.76L72.6005 20.992V32.392L74.4005 32.728L74.1605 34H67.1285V33.16L69.2405 32.44V23.344L67.2965 22.984ZM75.7753 22.984L75.6553 21.76L81.0793 20.992V22.984C81.6233 22.328 82.2873 21.848 83.0713 21.544C83.8553 21.224 84.5753 21.064 85.2313 21.064C85.9993 21.064 86.7513 21.208 87.4873 21.496C88.2233 21.768 88.8313 22.224 89.3113 22.864C89.8073 23.504 90.0633 24.376 90.0793 25.48V32.392L91.8793 32.728L91.6393 34H84.8473V33.16L86.7193 32.44V26.44C86.7193 25.416 86.5593 24.672 86.2393 24.208C85.9193 23.744 85.3113 23.512 84.4153 23.512C83.7753 23.512 83.1353 23.632 82.4953 23.872C81.8713 24.112 81.3993 24.416 81.0793 24.784V32.392L82.8793 32.728L82.6393 34H75.6073V33.16L77.7193 32.44V23.344L75.7753 22.984ZM95.8484 28.336C95.8484 29.248 96.0484 29.984 96.4484 30.544C96.8484 31.104 97.3844 31.52 98.0564 31.792C98.7444 32.048 99.4884 32.176 100.288 32.176C100.848 32.176 101.432 32.08 102.04 31.888C102.664 31.696 103.28 31.4 103.888 31L104.656 32.392C103.872 33 103.024 33.456 102.112 33.76C101.2 34.064 100.344 34.216 99.5444 34.216C98.6324 34.216 97.7524 34.096 96.9044 33.856C96.0564 33.616 95.2964 33.24 94.6244 32.728C93.9524 32.216 93.4164 31.552 93.0164 30.736C92.6324 29.904 92.4404 28.896 92.4404 27.712C92.4404 26.48 92.6484 25.44 93.0644 24.592C93.4964 23.744 94.0484 23.064 94.7204 22.552C95.3924 22.04 96.1284 21.672 96.9284 21.448C97.7284 21.208 98.4964 21.088 99.2324 21.088C100.592 21.088 101.688 21.416 102.52 22.072C103.368 22.728 103.992 23.608 104.392 24.712C104.792 25.8 104.992 27.008 104.992 28.336H95.8484ZM102.208 26.368C102.208 25.52 102.064 24.848 101.776 24.352C101.488 23.84 101.12 23.472 100.672 23.248C100.224 23.008 99.7604 22.888 99.2804 22.888C98.7364 22.888 98.2084 23.016 97.6964 23.272C97.2004 23.528 96.7844 23.912 96.4484 24.424C96.1284 24.936 95.9524 25.584 95.9204 26.368H102.208ZM115.983 32.032C116.351 32.144 116.807 32.256 117.351 32.368C117.895 32.48 118.583 32.512 119.415 32.464C119.895 32.432 120.335 32.344 120.735 32.2C121.151 32.04 121.479 31.776 121.719 31.408C121.975 31.024 122.103 30.504 122.103 29.848C122.103 29.24 121.903 28.744 121.503 28.36C121.103 27.96 120.583 27.608 119.943 27.304C119.319 27 118.647 26.696 117.927 26.392C117.223 26.072 116.551 25.696 115.911 25.264C115.287 24.832 114.775 24.288 114.375 23.632C113.975 22.96 113.775 22.128 113.775 21.136C113.775 20.304 113.959 19.608 114.327 19.048C114.711 18.472 115.215 18.008 115.839 17.656C116.479 17.304 117.183 17.048 117.951 16.888C118.735 16.728 119.527 16.648 120.327 16.648C121.271 16.648 122.175 16.744 123.039 16.936C123.903 17.112 124.615 17.36 125.175 17.68V22.216L123.615 22.456L122.799 18.928C122.495 18.8 122.159 18.712 121.791 18.664C121.423 18.6 121.055 18.568 120.687 18.568C120.159 18.568 119.647 18.648 119.151 18.808C118.671 18.968 118.271 19.24 117.951 19.624C117.647 19.992 117.495 20.504 117.495 21.16C117.495 21.736 117.695 22.224 118.095 22.624C118.495 23.008 119.007 23.36 119.631 23.68C120.271 23.984 120.943 24.296 121.647 24.616C122.367 24.936 123.039 25.32 123.663 25.768C124.303 26.2 124.823 26.744 125.223 27.4C125.623 28.056 125.823 28.872 125.823 29.848C125.823 31.016 125.527 31.928 124.935 32.584C124.359 33.24 123.599 33.704 122.655 33.976C121.711 34.248 120.695 34.384 119.607 34.384C118.439 34.384 117.319 34.264 116.247 34.024C115.191 33.8 114.319 33.56 113.631 33.304V28.864L115.191 28.624L115.983 32.032ZM136.432 32.344C136.064 32.92 135.528 33.392 134.824 33.76C134.12 34.112 133.408 34.288 132.688 34.288C131.52 34.288 130.576 34 129.855 33.424C129.136 32.832 128.776 31.992 128.776 30.904V23.104H126.88V22.024L129.136 21.304L130.072 18.4H132.136V21.52H135.976V23.08H132.136V29.968C132.136 30.848 132.24 31.448 132.448 31.768C132.672 32.088 133.032 32.248 133.528 32.248C133.848 32.248 134.176 32.184 134.512 32.056C134.848 31.928 135.248 31.712 135.712 31.408L136.432 32.344ZM143.211 21.04C144.651 21.04 145.883 21.336 146.907 21.928C147.931 22.504 148.707 23.28 149.235 24.256C149.779 25.216 150.051 26.272 150.051 27.424C150.051 28.736 149.795 29.904 149.283 30.928C148.771 31.952 148.035 32.752 147.075 33.328C146.115 33.904 144.955 34.192 143.595 34.192C142.075 34.192 140.803 33.896 139.779 33.304C138.771 32.712 138.011 31.92 137.499 30.928C137.003 29.92 136.755 28.8 136.755 27.568C136.755 26.32 137.027 25.208 137.571 24.232C138.115 23.24 138.867 22.464 139.827 21.904C140.803 21.328 141.931 21.04 143.211 21.04ZM143.571 32.44C144.275 32.44 144.859 32.216 145.323 31.768C145.787 31.32 146.139 30.736 146.379 30.016C146.619 29.296 146.739 28.52 146.739 27.688C146.739 27.08 146.683 26.488 146.571 25.912C146.475 25.32 146.299 24.792 146.043 24.328C145.787 23.848 145.427 23.464 144.963 23.176C144.515 22.888 143.939 22.744 143.235 22.744C142.547 22.744 141.963 22.952 141.483 23.368C141.019 23.784 140.667 24.336 140.427 25.024C140.187 25.712 140.067 26.472 140.067 27.304C140.067 27.896 140.115 28.496 140.211 29.104C140.307 29.712 140.483 30.272 140.739 30.784C140.995 31.28 141.347 31.68 141.795 31.984C142.259 32.288 142.851 32.44 143.571 32.44ZM151.319 22.984L151.199 21.76L156.623 20.992V22.984C157.167 22.328 157.831 21.848 158.615 21.544C159.399 21.224 160.119 21.064 160.775 21.064C161.319 21.064 161.903 21.2 162.527 21.472V25.696L160.847 25.912L159.959 23.512C159.319 23.512 158.679 23.632 158.039 23.872C157.415 24.112 156.943 24.416 156.623 24.784V32.392L158.903 32.728L158.663 34H151.151V33.16L153.263 32.44V23.344L151.319 22.984ZM167.192 28.336C167.192 29.248 167.392 29.984 167.792 30.544C168.192 31.104 168.728 31.52 169.4 31.792C170.088 32.048 170.832 32.176 171.632 32.176C172.192 32.176 172.776 32.08 173.384 31.888C174.008 31.696 174.624 31.4 175.232 31L176 32.392C175.216 33 174.368 33.456 173.456 33.76C172.544 34.064 171.688 34.216 170.888 34.216C169.976 34.216 169.096 34.096 168.248 33.856C167.4 33.616 166.64 33.24 165.968 32.728C165.296 32.216 164.76 31.552 164.36 30.736C163.976 29.904 163.784 28.896 163.784 27.712C163.784 26.48 163.992 25.44 164.408 24.592C164.84 23.744 165.392 23.064 166.064 22.552C166.736 22.04 167.472 21.672 168.272 21.448C169.072 21.208 169.84 21.088 170.576 21.088C171.936 21.088 173.032 21.416 173.864 22.072C174.712 22.728 175.336 23.608 175.736 24.712C176.136 25.8 176.336 27.008 176.336 28.336H167.192ZM173.552 26.368C173.552 25.52 173.408 24.848 173.12 24.352C172.832 23.84 172.464 23.472 172.016 23.248C171.568 23.008 171.104 22.888 170.624 22.888C170.08 22.888 169.552 23.016 169.04 23.272C168.544 23.528 168.128 23.912 167.792 24.424C167.472 24.936 167.296 25.584 167.264 26.368H173.552Z" fill="white"/>
</svg>
